{"glyphs":{"0":{"ha":1389,"x_min":-237,"x_max":1390,"o":"m 1390 972 l 1058 -278 l -237 -278 l 97 972 l 1390 972 m 710 88 l 849 610 l 443 610 l 304 88 l 710 88 z "},"1":{"ha":556,"x_min":-221,"x_max":556,"o":"m 224 -278 l -221 -278 l 111 972 l 556 972 l 224 -278 z "},"2":{"ha":1389,"x_min":-236,"x_max":1396,"o":"m -19 525 l 831 525 l 854 610 l 0 610 l 97 972 l 1390 972 l 1389 969 l 1396 969 l 1182 163 l 329 163 l 307 79 l 1154 79 l 1057 -283 l -236 -283 l -19 525 z "},"3":{"ha":1389,"x_min":-236,"x_max":1396,"o":"m 1064 -278 l -236 -278 l -139 79 l 714 79 l 736 163 l -117 163 l -19 525 l 832 525 l 856 610 l 0 610 l 97 972 l 1396 972 l 1064 -278 z "},"4":{"ha":1389,"x_min":-124,"x_max":1389,"o":"m 1389 972 l 1057 -278 l 613 -278 l 729 163 l -124 163 l 90 972 l 535 972 l 417 525 l 825 525 l 944 972 l 1389 972 z "},"5":{"ha":1389,"x_min":-242,"x_max":1389,"o":"m -144 79 l 708 79 l 731 163 l -124 163 l 92 972 l 1389 972 l 1292 610 l 440 610 l 417 525 l 1272 525 l 1058 -278 l -242 -278 l -144 79 z "},"6":{"ha":1389,"x_min":-235,"x_max":1390,"o":"m 446 610 l 422 525 l 1276 525 l 1064 -278 l -235 -278 l 97 972 l 1390 972 l 1293 610 l 446 610 m 326 163 l 304 79 l 714 79 l 736 163 l 326 163 z "},"7":{"ha":1389,"x_min":0,"x_max":1396,"o":"m 1063 -278 l 618 -278 l 854 610 l 0 610 l 97 972 l 1396 972 l 1063 -278 z "},"8":{"ha":1389,"x_min":-231,"x_max":1396,"o":"m 1068 -278 l -231 -278 l 97 972 l 1396 972 l 1068 -278 m 447 610 l 425 525 l 835 525 l 857 610 l 447 610 m 717 79 l 739 163 l 329 163 l 307 79 l 717 79 z "},"9":{"ha":1389,"x_min":-228,"x_max":1396,"o":"m 1068 -278 l -228 -278 l -135 79 l 717 79 l 739 163 l -114 163 l 97 972 l 1396 972 l 1068 -278 m 835 525 l 857 610 l 447 610 l 425 525 l 835 525 z "}," ":{"ha":0,"x_min":0,"x_max":0,"o":""},"A":{"ha":1389,"x_min":-235,"x_max":1396,"o":"m 1064 -278 l 619 -278 l 736 163 l 328 163 l 210 -278 l -235 -278 l 100 972 l 1396 972 l 1064 -278 m 832 525 l 856 610 l 447 610 l 425 525 l 832 525 z "},"B":{"ha":1389,"x_min":-231,"x_max":1396,"o":"m 1068 -278 l -231 -278 l 97 972 l 1396 972 l 1068 -278 m 447 610 l 425 525 l 835 525 l 857 610 l 447 610 m 717 79 l 739 163 l 329 163 l 307 79 l 717 79 z "},"C":{"ha":1389,"x_min":-236,"x_max":1390,"o":"m 446 610 l 306 79 l 1154 79 l 1057 -283 l -236 -283 l -169 -37 l 1 610 l 0 610 l 97 972 l 1390 972 l 1293 610 l 446 610 z "},"D":{"ha":1389,"x_min":-235,"x_max":1393,"o":"m 1393 340 l 868 -278 l -235 -278 l 97 972 l 1144 972 l 1393 340 m 701 85 l 919 343 l 815 610 l 446 610 l 306 85 l 701 85 z "},"E":{"ha":1389,"x_min":-231,"x_max":1396,"o":"m 447 610 l 425 525 l 1279 525 l 1183 163 l 329 163 l 307 79 l 1161 79 l 1068 -278 l -231 -278 l 97 972 l 1396 972 l 1300 610 l 447 610 z "},"F":{"ha":1389,"x_min":-231,"x_max":1396,"o":"m 447 610 l 425 525 l 1279 525 l 1183 163 l 329 163 l 214 -278 l -231 -278 l 97 972 l 1396 972 l 1300 610 l 447 610 z "},"G":{"ha":1389,"x_min":-236,"x_max":1388,"o":"m 715 85 l 736 165 l 425 165 l 522 528 l 1276 528 l 1064 -278 l -236 -278 l -169 -32 l 97 975 l 99 975 l 100 978 l 1388 978 l 1290 615 l 446 615 l 306 85 l 715 85 z "},"H":{"ha":1389,"x_min":-235,"x_max":1396,"o":"m 1396 969 l 1064 -281 l 619 -281 l 738 163 l 328 163 l 210 -281 l -235 -281 l 97 969 l 542 969 l 424 525 l 833 525 l 951 969 l 1396 969 z "},"I":{"ha":556,"x_min":-221,"x_max":556,"o":"m 224 -278 l -221 -278 l 111 972 l 556 972 l 224 -278 z "},"J":{"ha":1389,"x_min":-233,"x_max":1396,"o":"m 1396 969 l 1065 -278 l -233 -278 l -71 336 l 374 336 l 306 79 l 715 79 l 951 969 l 1396 969 z "},"K":{"ha":1389,"x_min":-235,"x_max":1381,"o":"m 97 972 l 542 972 l 407 463 l 936 972 l 1381 972 l 724 339 l 1193 -278 l 749 -278 l 350 247 l 210 -278 l -235 -278 l 97 972 z "},"L":{"ha":1389,"x_min":-233,"x_max":1154,"o":"m 1154 79 l 1058 -278 l -233 -278 l 97 969 l 542 969 l 306 79 l 1154 79 z "},"M":{"ha":1389,"x_min":-235,"x_max":1419,"o":"m 1419 969 l 1088 -278 l 643 -278 l 828 418 l 533 142 l 393 411 l 210 -278 l -235 -278 l 97 969 l 103 969 l 101 972 l 546 972 l 676 694 l 974 972 l 1418 972 l 1415 969 l 1419 969 z "},"N":{"ha":1389,"x_min":-235,"x_max":1396,"o":"m 97 972 l 549 972 l 793 375 l 951 972 l 1396 972 l 1064 -278 l 619 -278 l 371 324 l 210 -278 l -235 -278 l 97 972 z "},"O":{"ha":1389,"x_min":-237,"x_max":1390,"o":"m 1390 972 l 1058 -278 l -237 -278 l 97 972 l 1390 972 m 710 88 l 849 610 l 443 610 l 304 88 l 710 88 z "},"P":{"ha":1389,"x_min":-235,"x_max":1390,"o":"m 1176 163 l 326 163 l 210 -278 l -235 -278 l 97 972 l 1390 972 l 1176 163 m 850 610 l 446 610 l 422 525 l 828 525 l 850 610 z "},"Q":{"ha":1389,"x_min":-239,"x_max":1389,"o":"m 1057 -278 l 1011 -278 l 1035 -392 l 590 -392 l 567 -278 l -239 -278 l 96 972 l 1389 972 l 1057 -278 m 493 88 l 454 278 l 760 278 l 849 610 l 443 610 l 304 88 l 493 88 z "},"R":{"ha":1389,"x_min":-235,"x_max":1390,"o":"m 1176 163 l 875 163 l 1064 -281 l 619 -281 l 431 163 l 326 163 l 210 -278 l -235 -278 l 97 972 l 1390 972 l 1176 163 m 422 525 l 828 525 l 850 610 l 446 610 l 422 525 z "},"S":{"ha":1389,"x_min":-242,"x_max":1389,"o":"m -144 79 l 708 79 l 731 163 l -124 163 l 92 972 l 1389 972 l 1292 610 l 440 610 l 417 525 l 1272 525 l 1058 -278 l -242 -278 l -144 79 z "},"T":{"ha":1389,"x_min":0,"x_max":1390,"o":"m 1293 610 l 871 610 l 635 -278 l 190 -278 l 426 610 l 0 610 l 97 972 l 1390 972 l 1293 610 z "},"U":{"ha":1389,"x_min":-235,"x_max":1396,"o":"m 1396 969 l 1064 -278 l -235 -278 l 97 969 l 542 969 l 304 79 l 714 79 l 951 969 l 1396 969 z "},"V":{"ha":1389,"x_min":-114,"x_max":1390,"o":"m 1390 969 l 635 -278 l -3 -278 l -114 969 l 331 969 l 410 83 l 946 969 l 1390 969 z "},"W":{"ha":2083,"x_min":-104,"x_max":2076,"o":"m 340 972 l 394 361 l 763 972 l 1210 972 l 1264 361 l 1632 972 l 2076 972 l 1321 -278 l 876 -278 l 822 332 l 451 -278 l 7 -278 l -104 972 l 340 972 z "},"X":{"ha":1389,"x_min":-276,"x_max":1382,"o":"m 871 340 l 1106 -278 l 661 -278 l 506 132 l 168 -278 l -276 -278 l 233 340 l -14 972 l 431 972 l 596 550 l 938 972 l 1382 972 l 871 340 z "},"Y":{"ha":1389,"x_min":17,"x_max":1385,"o":"m 825 167 l 700 167 l 582 -278 l 138 -278 l 256 164 l 136 164 l 17 972 l 461 972 l 546 404 l 940 972 l 1385 972 l 825 167 z "},"Z":{"ha":1389,"x_min":-235,"x_max":1390,"o":"m -139 79 l 743 610 l 0 610 l 97 972 l 1390 972 l 1293 610 l 410 79 l 1154 79 l 1058 -278 l -235 -278 l -139 79 z "},"a":{"ha":1389,"x_min":-235,"x_max":1396,"o":"m 1064 -278 l 619 -278 l 736 163 l 328 163 l 210 -278 l -235 -278 l 100 972 l 1396 972 l 1064 -278 m 832 525 l 856 610 l 447 610 l 425 525 l 832 525 z "},"b":{"ha":1389,"x_min":-231,"x_max":1396,"o":"m 1068 -278 l -231 -278 l 97 972 l 1396 972 l 1068 -278 m 447 610 l 425 525 l 835 525 l 857 610 l 447 610 m 717 79 l 739 163 l 329 163 l 307 79 l 717 79 z "},"c":{"ha":1389,"x_min":-236,"x_max":1390,"o":"m 446 610 l 306 79 l 1154 79 l 1057 -283 l -236 -283 l -169 -37 l 1 610 l 0 610 l 97 972 l 1390 972 l 1293 610 l 446 610 z "},"d":{"ha":1389,"x_min":-235,"x_max":1393,"o":"m 1393 340 l 868 -278 l -235 -278 l 97 972 l 1144 972 l 1393 340 m 701 85 l 919 343 l 815 610 l 446 610 l 306 85 l 701 85 z "},"e":{"ha":1389,"x_min":-231,"x_max":1396,"o":"m 447 610 l 425 525 l 1279 525 l 1183 163 l 329 163 l 307 79 l 1161 79 l 1068 -278 l -231 -278 l 97 972 l 1396 972 l 1300 610 l 447 610 z "},"f":{"ha":1389,"x_min":-231,"x_max":1396,"o":"m 447 610 l 425 525 l 1279 525 l 1183 163 l 329 163 l 214 -278 l -231 -278 l 97 972 l 1396 972 l 1300 610 l 447 610 z "},"g":{"ha":1389,"x_min":-236,"x_max":1388,"o":"m 715 85 l 736 165 l 425 165 l 522 528 l 1276 528 l 1064 -278 l -236 -278 l -169 -32 l 97 975 l 99 975 l 100 978 l 1388 978 l 1290 615 l 446 615 l 306 85 l 715 85 z "},"h":{"ha":1389,"x_min":-235,"x_max":1396,"o":"m 1396 969 l 1064 -281 l 619 -281 l 738 163 l 328 163 l 210 -281 l -235 -281 l 97 969 l 542 969 l 424 525 l 833 525 l 951 969 l 1396 969 z "},"i":{"ha":556,"x_min":-221,"x_max":556,"o":"m 224 -278 l -221 -278 l 111 972 l 556 972 l 224 -278 z "},"j":{"ha":1389,"x_min":-233,"x_max":1396,"o":"m 1396 969 l 1065 -278 l -233 -278 l -71 336 l 374 336 l 306 79 l 715 79 l 951 969 l 1396 969 z "},"k":{"ha":1389,"x_min":-235,"x_max":1381,"o":"m 97 972 l 542 972 l 407 463 l 936 972 l 1381 972 l 724 339 l 1193 -278 l 749 -278 l 350 247 l 210 -278 l -235 -278 l 97 972 z "},"l":{"ha":1389,"x_min":-233,"x_max":1154,"o":"m 1154 79 l 1058 -278 l -233 -278 l 97 969 l 542 969 l 306 79 l 1154 79 z "},"m":{"ha":1389,"x_min":-235,"x_max":1419,"o":"m 1419 969 l 1088 -278 l 643 -278 l 828 418 l 533 142 l 393 411 l 210 -278 l -235 -278 l 97 969 l 103 969 l 101 972 l 546 972 l 676 694 l 974 972 l 1418 972 l 1415 969 l 1419 969 z "},"n":{"ha":1389,"x_min":-235,"x_max":1396,"o":"m 97 972 l 549 972 l 793 375 l 951 972 l 1396 972 l 1064 -278 l 619 -278 l 371 324 l 210 -278 l -235 -278 l 97 972 z "},"o":{"ha":1389,"x_min":-237,"x_max":1390,"o":"m 1390 972 l 1058 -278 l -237 -278 l 97 972 l 1390 972 m 710 88 l 849 610 l 443 610 l 304 88 l 710 88 z "},"p":{"ha":1389,"x_min":-235,"x_max":1390,"o":"m 1176 163 l 326 163 l 210 -278 l -235 -278 l 97 972 l 1390 972 l 1176 163 m 850 610 l 446 610 l 422 525 l 828 525 l 850 610 z "},"q":{"ha":1389,"x_min":-239,"x_max":1389,"o":"m 1057 -278 l 1011 -278 l 1035 -392 l 590 -392 l 567 -278 l -239 -278 l 96 972 l 1389 972 l 1057 -278 m 493 88 l 454 278 l 760 278 l 849 610 l 443 610 l 304 88 l 493 88 z "},"r":{"ha":1389,"x_min":-235,"x_max":1390,"o":"m 1176 163 l 875 163 l 1064 -281 l 619 -281 l 431 163 l 326 163 l 210 -278 l -235 -278 l 97 972 l 1390 972 l 1176 163 m 422 525 l 828 525 l 850 610 l 446 610 l 422 525 z "},"s":{"ha":1389,"x_min":-242,"x_max":1389,"o":"m -144 79 l 708 79 l 731 163 l -124 163 l 92 972 l 1389 972 l 1292 610 l 440 610 l 417 525 l 1272 525 l 1058 -278 l -242 -278 l -144 79 z "},"t":{"ha":1389,"x_min":0,"x_max":1390,"o":"m 1293 610 l 871 610 l 635 -278 l 190 -278 l 426 610 l 0 610 l 97 972 l 1390 972 l 1293 610 z "},"u":{"ha":1389,"x_min":-235,"x_max":1396,"o":"m 1396 969 l 1064 -278 l -235 -278 l 97 969 l 542 969 l 304 79 l 714 79 l 951 969 l 1396 969 z "},"v":{"ha":1389,"x_min":-114,"x_max":1390,"o":"m 1390 969 l 635 -278 l -3 -278 l -114 969 l 331 969 l 410 83 l 946 969 l 1390 969 z "},"w":{"ha":2083,"x_min":-104,"x_max":2076,"o":"m 340 972 l 394 361 l 763 972 l 1210 972 l 1264 361 l 1632 972 l 2076 972 l 1321 -278 l 876 -278 l 822 332 l 451 -278 l 7 -278 l -104 972 l 340 972 z "},"x":{"ha":1389,"x_min":-276,"x_max":1382,"o":"m 871 340 l 1106 -278 l 661 -278 l 506 132 l 168 -278 l -276 -278 l 233 340 l -14 972 l 431 972 l 596 550 l 938 972 l 1382 972 l 871 340 z "},"y":{"ha":1389,"x_min":17,"x_max":1385,"o":"m 825 167 l 700 167 l 582 -278 l 138 -278 l 256 164 l 136 164 l 17 972 l 461 972 l 546 404 l 940 972 l 1385 972 l 825 167 z "},"z":{"ha":1389,"x_min":-235,"x_max":1390,"o":"m -139 79 l 743 610 l 0 610 l 97 972 l 1390 972 l 1293 610 l 410 79 l 1154 79 l 1058 -278 l -235 -278 l -139 79 z "},"ア":{"ha":1389,"x_min":36,"x_max":1407,"o":"m 751 225 l 860 610 l 36 610 l 133 972 l 1407 972 l 1196 225 l 751 225 m 138 -278 l 349 469 l 793 469 l 582 -278 l 138 -278 z "},"ァ":{"ha":1111,"x_min":1,"x_max":1067,"o":"m 557 114 l 642 414 l 1 414 l 76 696 l 1067 696 l 903 114 l 557 114 m 79 -276 l 243 304 l 589 304 l 425 -276 l 79 -276 z "},"イ":{"ha":1389,"x_min":11,"x_max":1390,"o":"m 715 -272 l 271 -272 l 469 432 l 11 332 l 108 694 l 1390 972 l 1293 610 l 943 533 l 715 -272 z "},"ィ":{"ha":1111,"x_min":11,"x_max":1082,"o":"m 557 -274 l 213 -274 l 367 272 l 11 196 l 86 478 l 1082 693 l 1006 411 l 733 353 l 557 -274 z "},"ウ":{"ha":1389,"x_min":-61,"x_max":1389,"o":"m 849 481 l 438 481 l 383 289 l -61 289 l 93 843 l 518 843 l 553 974 l 997 974 l 963 843 l 1389 843 l 1094 -278 l 650 -278 l 849 481 z "},"ゥ":{"ha":1111,"x_min":103,"x_max":1214,"o":"m 793 311 l 490 311 l 449 165 l 103 165 l 224 593 l 224 594 l 542 594 l 569 694 l 915 694 l 888 593 l 1214 593 l 985 -279 l 638 -279 l 793 311 z "},"エ":{"ha":1389,"x_min":-235,"x_max":1390,"o":"m 1156 88 l 1058 -275 l -235 -275 l -137 88 l 301 88 l 440 610 l 0 610 l 97 972 l 1390 972 l 1293 610 l 885 610 l 746 88 l 1156 88 z "},"ェ":{"ha":1111,"x_min":11,"x_max":1276,"o":"m 1093 8 l 1018 -274 l 11 -274 l 86 8 l 428 8 l 536 415 l 193 415 l 269 697 l 1276 697 l 1201 415 l 883 415 l 775 8 l 1093 8 z "},"オ":{"ha":1389,"x_min":-200,"x_max":1394,"o":"m 918 -278 l 474 -278 l 600 192 l 244 -278 l -200 -278 l 363 467 l -1 467 l 96 829 l 771 829 l 810 974 l 1254 974 l 1215 829 l 1394 829 l 1297 467 l 1118 467 l 918 -278 z "},"ォ":{"ha":1111,"x_min":4,"x_max":1240,"o":"m 871 -278 l 526 -278 l 625 88 l 349 -278 l 4 -278 l 440 300 l 158 300 l 233 582 l 757 582 l 788 693 l 1132 693 l 1101 582 l 1240 582 l 1165 300 l 1026 300 l 871 -278 z "},"カ":{"ha":1389,"x_min":-8,"x_max":1390,"o":"m 656 -278 l 850 450 l 629 450 l 436 -271 l -8 -271 l 185 450 l -4 450 l 93 813 l 282 813 l 326 979 l 771 979 l 726 813 l 1390 814 l 1100 -278 l 656 -278 z "},"ヵ":{"ha":1111,"x_min":-8,"x_max":1067,"o":"m 501 -276 l 651 283 l 482 283 l 333 -271 l -8 -271 l 140 283 l -6 283 l 69 561 l 214 561 l 249 690 l 590 690 l 556 561 l 1067 563 l 843 -276 l 501 -276 z "},"ガ":{"ha":1389,"x_min":-8,"x_max":1432,"o":"m 656 -278 l 850 450 l 629 450 l 436 -271 l -8 -271 l 185 450 l -4 450 l 93 813 l 282 813 l 326 979 l 771 979 l 726 813 l 1115 814 l 1158 972 l 1282 972 l 1239 814 l 1265 814 l 1308 972 l 1432 972 l 1390 814 l 1100 -278 l 656 -278 z "},"キ":{"ha":1389,"x_min":-117,"x_max":1392,"o":"m 1274 363 l 1176 0 l 761 0 l 686 -278 l 242 -278 l 317 0 l -117 0 l -19 363 l 414 363 l 440 463 l 1 463 l 99 825 l 538 825 l 578 972 l 1022 972 l 982 825 l 1392 825 l 1294 463 l 885 463 l 858 363 l 1274 363 z "},"ギ":{"ha":1389,"x_min":-117,"x_max":1432,"o":"m 885 463 l 858 363 l 1274 363 l 1176 0 l 761 0 l 686 -278 l 242 -278 l 317 0 l -117 0 l -19 363 l 414 363 l 440 463 l 1 463 l 99 825 l 538 825 l 578 972 l 1022 972 l 982 825 l 1118 825 l 1158 975 l 1282 975 l 1242 825 l 1268 825 l 1308 975 l 1432 975 l 1357 694 l 1294 463 l 885 463 z "},"ク":{"ha":1389,"x_min":-133,"x_max":1388,"o":"m 656 -278 l 850 485 l 440 485 l 311 0 l -133 0 l 126 972 l 571 972 l 538 847 l 1388 847 l 1100 -278 l 656 -278 z "},"グ":{"ha":1389,"x_min":-133,"x_max":1421,"o":"m 656 -278 l 850 485 l 440 485 l 311 0 l -133 0 l 126 972 l 571 972 l 538 847 l 1113 847 l 1147 975 l 1271 975 l 1236 847 l 1263 847 l 1297 975 l 1421 975 l 1388 847 l 1100 -278 l 656 -278 z "},"ケ":{"ha":1389,"x_min":-72,"x_max":1388,"o":"m 856 -278 l 411 -278 l 606 485 l 442 485 l 372 222 l -72 222 l -3 485 l 3 506 l 126 972 l 571 972 l 538 847 l 1388 847 l 1290 485 l 1050 485 l 856 -278 z "},"ヶ":{"ha":1389,"x_min":-58,"x_max":1075,"o":"m 663 -276 l 317 -276 l 468 315 l 342 315 l 288 113 l -58 113 l 96 694 l 442 694 l 415 597 l 1075 597 l 999 315 l 813 315 l 663 -276 z "},"ゲ":{"ha":1389,"x_min":-72,"x_max":1422,"o":"m 1050 485 l 856 -278 l 411 -278 l 606 485 l 442 485 l 372 222 l -72 222 l -3 485 l 3 506 l 126 972 l 571 972 l 538 847 l 1115 847 l 1149 974 l 1272 974 l 1239 847 l 1265 847 l 1299 974 l 1422 974 l 1346 693 l 1290 485 l 1050 485 z "},"コ":{"ha":1389,"x_min":-235,"x_max":1390,"o":"m 710 88 l 849 610 l 0 610 l 97 972 l 1390 972 l 1058 -275 l -235 -275 l -137 88 l 710 88 z "},"ゴ":{"ha":1389,"x_min":-235,"x_max":1429,"o":"m 1058 -275 l -235 -275 l -137 88 l 710 88 l 849 610 l 0 610 l 97 972 l 1119 972 l 1156 1110 l 1279 1110 l 1243 972 l 1269 972 l 1306 1110 l 1429 1110 l 1354 829 l 1353 829 l 1058 -275 z "},"サ":{"ha":1389,"x_min":-32,"x_max":1358,"o":"m 958 -278 l 514 -278 l 679 332 l 553 332 l 464 0 l 19 0 l 108 332 l -32 332 l 65 694 l 204 694 l 279 975 l 724 975 l 649 694 l 778 694 l 853 972 l 1297 972 l 1222 694 l 1358 694 l 1261 332 l 1124 332 l 958 -278 z "},"ザ":{"ha":1389,"x_min":-32,"x_max":1358,"o":"m 514 -278 l 679 332 l 553 332 l 464 0 l 19 0 l 108 332 l -32 332 l 65 694 l 204 694 l 279 975 l 724 975 l 649 694 l 778 694 l 853 972 l 1297 972 l 1222 694 l 1358 694 l 1261 332 l 1124 332 l 958 -278 l 514 -278 m 993 -274 l 1068 7 l 1192 7 l 1117 -274 l 993 -274 m 1267 -274 l 1143 -274 l 1218 7 l 1342 7 l 1267 -274 z "},"シ":{"ha":1389,"x_min":-232,"x_max":1358,"o":"m 8 610 l 106 972 l 853 972 l 756 610 l 8 610 m -135 85 l 711 86 l 914 821 l 1358 821 l 1057 -275 l 1056 -278 l -232 -278 l -135 85 m -110 167 l -12 529 l 739 529 l 642 167 l -110 167 z "},"ジ":{"ha":1389,"x_min":-232,"x_max":1399,"o":"m 1324 693 l 1057 -275 l 1056 -278 l -232 -278 l -135 85 l 711 86 l 914 821 l 1085 821 l 1125 974 l 1249 974 l 1208 821 l 1235 821 l 1275 974 l 1399 974 l 1339 747 l 1324 693 m 106 972 l 853 972 l 756 610 l 8 610 l 106 972 m -12 529 l 739 529 l 642 167 l -110 167 l -12 529 z "},"ス":{"ha":1389,"x_min":-236,"x_max":1390,"o":"m 599 -281 l 558 6 l 208 -281 l -236 -281 l 849 610 l 0 610 l 97 972 l 1390 972 l 1293 610 l 956 333 l 1043 -281 l 599 -281 z "},"ズ":{"ha":1389,"x_min":-236,"x_max":1428,"o":"m 956 333 l 1043 -281 l 599 -281 l 558 6 l 208 -281 l -236 -281 l 849 610 l 0 610 l 97 972 l 1118 972 l 1154 1108 l 1278 1108 l 1242 972 l 1268 972 l 1304 1108 l 1428 1108 l 1351 828 l 1293 610 l 956 333 z "},"セ":{"ha":1389,"x_min":-42,"x_max":1357,"o":"m 603 465 l 500 86 l 1156 88 l 1058 -275 l -42 -278 l 158 465 l -35 465 l 63 828 l 257 828 l 293 964 l 738 964 l 700 828 l 1356 828 l 1356 826 l 1357 826 l 1199 253 l 754 253 l 813 465 l 603 465 z "},"ゼ":{"ha":1389,"x_min":-42,"x_max":1396,"o":"m 1321 694 l 1199 253 l 754 253 l 813 465 l 603 465 l 500 86 l 1156 88 l 1058 -275 l -42 -278 l 158 465 l -35 465 l 63 828 l 257 828 l 293 964 l 738 964 l 700 828 l 1083 828 l 1122 975 l 1246 975 l 1207 828 l 1233 828 l 1272 975 l 1396 975 l 1357 826 l 1331 731 l 1321 694 z "},"ソ":{"ha":1389,"x_min":99,"x_max":1390,"o":"m 100 335 l 99 972 l 543 972 l 544 335 l 100 335 m 614 -275 l 946 967 l 1390 967 l 1058 -275 l 614 -275 z "},"ゾ":{"ha":1389,"x_min":99,"x_max":1446,"o":"m 100 335 l 99 972 l 543 972 l 544 335 l 100 335 m 614 -275 l 946 967 l 1390 967 l 1058 -275 l 614 -275 m 1097 -281 l 1172 0 l 1296 0 l 1221 -281 l 1097 -281 m 1247 -281 l 1322 0 l 1446 0 l 1371 -281 l 1247 -281 z "},"タ":{"ha":1389,"x_min":-133,"x_max":1388,"o":"m 744 71 l 331 71 l 311 0 l -133 0 l 126 972 l 571 972 l 538 847 l 1388 847 l 1100 -278 l 656 -278 l 744 71 m 426 433 l 838 433 l 850 485 l 440 485 l 426 433 z "},"ダ":{"ha":1389,"x_min":-133,"x_max":1422,"o":"m 656 -278 l 744 71 l 331 71 l 311 0 l -133 0 l 126 972 l 571 972 l 538 847 l 1115 847 l 1149 971 l 1272 971 l 1239 847 l 1265 847 l 1299 971 l 1422 971 l 1351 704 l 1100 -278 l 656 -278 m 426 433 l 838 433 l 850 485 l 440 485 l 426 433 z "},"チ":{"ha":1389,"x_min":-122,"x_max":1390,"o":"m 1268 511 l 1171 149 l 776 149 l 663 -281 l 218 -281 l 332 149 l -122 149 l -25 511 l 428 511 l 454 610 l 0 610 l 97 972 l 1390 972 l 1293 610 l 899 610 l 872 511 l 1268 511 z "},"ヂ":{"ha":1389,"x_min":-122,"x_max":1390,"o":"m 1268 511 l 1171 149 l 1168 149 l 1128 -3 l 1004 -3 l 1044 149 l 1018 149 l 978 -3 l 854 -3 l 894 149 l 776 149 l 663 -281 l 218 -281 l 332 149 l -122 149 l -25 511 l 428 511 l 454 610 l 0 610 l 97 972 l 1390 972 l 1293 610 l 899 610 l 872 511 l 1268 511 z "},"ツ":{"ha":1389,"x_min":-249,"x_max":1361,"o":"m 88 979 l 435 979 l 221 178 l -126 178 l 88 979 m 868 979 l 654 178 l 307 178 l 521 979 l 868 979 m -249 -278 l -151 85 l 717 85 l 917 826 l 1361 826 l 1063 -278 l -249 -278 z "},"ッ":{"ha":1111,"x_min":7,"x_max":1226,"o":"m 267 696 l 536 696 l 371 75 l 101 75 l 267 696 m 872 696 l 707 75 l 438 75 l 603 696 l 872 696 m 7 -278 l 82 3 l 754 3 l 882 475 l 1226 475 l 1024 -278 l 7 -278 z "},"ヅ":{"ha":1389,"x_min":-249,"x_max":1400,"o":"m 88 979 l 435 979 l 221 178 l -126 178 l 88 979 m 868 979 l 654 178 l 307 178 l 521 979 l 868 979 m 1063 -278 l -249 -278 l -151 85 l 717 85 l 917 826 l 1086 826 l 1126 978 l 1250 978 l 1210 826 l 1236 826 l 1276 978 l 1400 978 l 1360 826 l 1361 826 l 1063 -278 z "},"テ":{"ha":1389,"x_min":-122,"x_max":1390,"o":"m 0 610 l 97 972 l 1390 972 l 1293 610 l 0 610 m 1171 149 l 778 149 l 663 -281 l 218 -281 l 333 149 l -122 149 l -25 511 l 1268 511 l 1171 149 z "},"デ":{"ha":1389,"x_min":-122,"x_max":1390,"o":"m 0 610 l 97 972 l 1390 972 l 1293 610 l 0 610 m 1008 1 l 1047 149 l 1021 149 l 982 1 l 858 1 l 897 149 l 778 149 l 663 -281 l 218 -281 l 333 149 l -122 149 l -25 511 l 1268 511 l 1132 1 l 1008 1 z "},"ト":{"ha":1389,"x_min":-236,"x_max":1268,"o":"m 208 -281 l -236 -281 l 96 969 l 540 969 l 418 511 l 1268 511 l 1171 149 l 322 149 l 208 -281 z "},"ド":{"ha":1389,"x_min":-236,"x_max":1388,"o":"m 1114 972 l 1238 972 l 1163 692 l 1039 692 l 1114 972 m 1189 692 l 1264 972 l 1388 972 l 1313 692 l 1189 692 m 1171 149 l 322 149 l 208 -281 l -236 -281 l 96 969 l 540 969 l 418 511 l 1268 511 l 1171 149 z "},"ナ":{"ha":1389,"x_min":-237,"x_max":1314,"o":"m 663 -281 l 218 -281 l 218 -279 l -237 -278 l -140 85 l 315 83 l 381 331 l -76 331 l 21 693 l 476 693 l 550 969 l 994 969 l 921 693 l 1314 693 l 1217 331 l 825 331 l 760 82 l 663 -281 z "},"ニ":{"ha":1389,"x_min":-235,"x_max":1390,"o":"m 0 610 l 97 972 l 1390 972 l 1293 610 l 0 610 m -235 -275 l -137 88 l 1156 88 l 1058 -275 l -235 -275 z "},"ヌ":{"ha":1389,"x_min":-233,"x_max":1389,"o":"m 614 -281 l 546 -192 l 483 -278 l -233 -278 l -136 85 l 301 85 l 319 108 l -11 544 l 433 544 l 536 408 l 682 610 l 1 610 l 99 972 l 1389 972 l 764 108 l 1058 -281 l 614 -281 z "},"ネ":{"ha":1389,"x_min":-185,"x_max":1343,"o":"m 1210 282 l 1113 -81 l 757 76 l 663 -281 l 218 -281 l 319 100 l -185 -81 l -87 282 l 331 432 l -47 432 l 50 794 l 504 794 l 550 969 l 994 969 l 949 794 l 1343 794 l 1246 432 l 1039 358 l 1210 282 z "},"ノ":{"ha":1389,"x_min":-236,"x_max":1389,"o":"m 708 82 l 944 969 l 1389 969 l 1057 -281 l -236 -281 l -139 82 l 708 82 z "},"ハ":{"ha":1389,"x_min":-235,"x_max":1160,"o":"m -235 -281 l 97 969 l 542 969 l 210 -281 l -235 -281 m 713 -281 l 715 694 l 1160 694 l 1157 -281 l 713 -281 z "},"バ":{"ha":1389,"x_min":-235,"x_max":1233,"o":"m 210 -281 l -235 -281 l 97 969 l 542 969 l 210 -281 m 713 -281 l 715 694 l 886 694 l 960 969 l 1083 969 l 1010 694 l 1036 694 l 1110 969 l 1233 969 l 1160 694 l 1157 -281 l 713 -281 z "},"パ":{"ha":1389,"x_min":-235,"x_max":1169,"o":"m 1169 824 q 1151 749 1169 783 q 1100 694 1132 715 l 1160 694 l 1157 -281 l 713 -281 l 715 694 l 931 694 q 880 749 899 715 q 861 824 861 783 q 906 933 861 889 q 1015 978 951 978 q 1125 933 1081 978 q 1169 824 1169 889 m 210 -281 l -235 -281 l 97 969 l 542 969 l 210 -281 m 1015 867 q 985 854 997 867 q 972 824 972 842 q 985 793 972 806 q 1015 781 997 781 q 1046 793 1033 781 q 1058 824 1058 806 q 1046 854 1058 842 q 1015 867 1033 867 z "},"ヒ":{"ha":1389,"x_min":-240,"x_max":1308,"o":"m 1053 -281 l -240 -281 l 92 969 l 536 969 l 463 694 l 1308 694 l 1211 332 l 367 332 l 300 82 l 1150 82 l 1053 -281 z "},"ビ":{"ha":1389,"x_min":-240,"x_max":1376,"o":"m 1211 332 l 367 332 l 300 82 l 1150 82 l 1053 -281 l -240 -281 l 92 969 l 536 969 l 463 694 l 1029 694 l 1103 968 l 1226 968 l 1153 694 l 1179 694 l 1253 968 l 1376 968 l 1303 694 l 1308 694 l 1211 332 z "},"ピ":{"ha":1389,"x_min":-240,"x_max":1331,"o":"m 1331 818 q 1315 748 1331 781 q 1269 694 1299 715 l 1308 694 l 1211 332 l 367 332 l 300 82 l 1150 82 l 1053 -281 l -240 -281 l 92 969 l 536 969 l 463 694 l 1083 694 q 1038 748 1054 715 q 1022 818 1022 781 q 1067 928 1022 883 q 1176 972 1113 972 q 1286 928 1242 972 q 1331 818 1331 883 m 1176 861 q 1146 849 1158 861 q 1133 818 1133 836 q 1146 788 1133 800 q 1176 775 1158 775 q 1207 788 1194 775 q 1219 818 1219 800 q 1207 849 1219 836 q 1176 861 1194 861 z "},"フ":{"ha":1389,"x_min":0,"x_max":1390,"o":"m 850 610 l 0 610 l 97 972 l 1390 972 l 1390 969 l 1058 -281 l 614 -281 l 850 610 z "},"ブ":{"ha":1389,"x_min":0,"x_max":1446,"o":"m 850 610 l 0 610 l 97 972 l 1390 972 l 1390 969 l 1058 -281 l 614 -281 l 850 610 m 1097 -281 l 1172 0 l 1296 0 l 1221 -281 l 1097 -281 m 1247 -281 l 1322 0 l 1446 0 l 1371 -281 l 1247 -281 z "},"プ":{"ha":1389,"x_min":0,"x_max":1390,"o":"m 1131 -10 q 1235 31 1174 31 q 1344 -15 1300 31 q 1389 -124 1389 -60 q 1344 -233 1389 -189 q 1235 -278 1300 -278 q 1143 -248 1183 -278 q 1088 -171 1103 -218 l 1058 -281 l 614 -281 l 850 610 l 0 610 l 97 972 l 1390 972 l 1390 969 l 1131 -10 m 1235 -81 q 1204 -93 1217 -81 q 1192 -124 1192 -106 q 1204 -154 1192 -142 q 1235 -167 1217 -167 q 1265 -154 1253 -167 q 1278 -124 1278 -142 q 1265 -93 1278 -106 q 1235 -81 1253 -81 z "},"ヘ":{"ha":1389,"x_min":-165,"x_max":1058,"o":"m -165 0 l 94 969 l 544 972 l 1058 -278 l 614 -278 l 367 325 l 279 0 l -165 0 z "},"ベ":{"ha":1389,"x_min":-165,"x_max":1058,"o":"m 367 325 l 279 0 l -165 0 l 94 969 l 544 972 l 653 707 l 724 969 l 847 969 l 772 689 l 661 689 l 1058 -278 l 614 -278 l 367 325 m 997 969 l 922 689 l 799 689 l 874 969 l 997 969 z "},"ペ":{"ha":1389,"x_min":-165,"x_max":1058,"o":"m 367 325 l 279 0 l -165 0 l 94 969 l 544 972 l 622 785 q 618 818 618 801 q 663 928 618 883 q 772 972 708 972 q 882 928 838 972 q 926 818 926 883 q 882 709 926 754 q 772 664 838 664 q 697 683 732 664 q 642 735 663 701 l 1058 -278 l 614 -278 l 367 325 m 772 861 q 742 849 754 861 q 729 818 729 836 q 742 788 729 800 q 772 775 754 775 q 803 788 790 775 q 815 818 815 800 q 803 849 815 836 q 772 861 790 861 z "},"ホ":{"ha":1389,"x_min":-228,"x_max":1351,"o":"m 831 450 l 638 -278 l 193 -278 l 386 450 l -39 450 l 58 813 l 482 813 l 525 972 l 969 972 l 926 813 l 1351 813 l 1254 450 l 831 450 m -228 -278 l -65 339 l 296 339 l 133 -278 l -228 -278 m 1060 -278 l 699 -278 l 861 339 l 1222 339 l 1060 -278 z "},"ボ":{"ha":1389,"x_min":-228,"x_max":1394,"o":"m 831 450 l 638 -278 l 193 -278 l 386 450 l -39 450 l 58 813 l 482 813 l 525 972 l 969 972 l 926 813 l 1079 813 l 1121 969 l 1244 969 l 1203 813 l 1229 813 l 1271 969 l 1394 969 l 1318 689 l 1254 450 l 831 450 m -228 -278 l -65 339 l 296 339 l 133 -278 l -228 -278 m 1060 -278 l 699 -278 l 861 339 l 1222 339 l 1060 -278 z "},"ポ":{"ha":1389,"x_min":-228,"x_max":1351,"o":"m 1190 971 q 1305 924 1258 971 q 1351 813 1351 878 l 1254 450 l 831 450 l 638 -278 l 193 -278 l 386 450 l -39 450 l 58 813 l 482 813 l 525 972 l 969 972 l 926 813 l 1028 813 q 1076 925 1029 879 q 1190 971 1122 971 m 1235 813 q 1222 843 1235 831 q 1190 856 1208 856 q 1158 843 1171 856 q 1144 813 1144 831 l 1235 813 m -228 -278 l -65 339 l 296 339 l 133 -278 l -228 -278 m 1060 -278 l 699 -278 l 861 339 l 1222 339 l 1060 -278 z "},"マ":{"ha":1389,"x_min":-40,"x_max":1390,"o":"m -40 453 l 404 453 l 461 286 l 849 610 l 0 610 l 97 972 l 1390 972 l 1293 610 l 563 0 l 653 -278 l 208 -278 l -40 453 z "},"ミ":{"ha":1389,"x_min":-236,"x_max":1390,"o":"m 0 610 l 97 972 l 1390 972 l 1293 610 l 0 610 m 1176 163 l -117 163 l -19 525 l 1274 525 l 1176 163 m 1057 -283 l -236 -283 l -139 79 l 1154 79 l 1057 -283 z "},"ム":{"ha":1389,"x_min":-236,"x_max":1244,"o":"m 210 -278 l 208 -281 l -236 -281 l 96 969 l 540 969 l 306 85 l 710 85 l 800 424 l 1244 424 l 1156 85 l 1058 -278 l 210 -278 z "},"メ":{"ha":1389,"x_min":-226,"x_max":1390,"o":"m 671 -129 l 557 82 l 218 -281 l -226 -281 l 393 382 l 74 972 l 518 972 l 675 683 l 946 972 l 1390 972 l 838 382 l 1115 -129 l 671 -129 z "},"モ":{"ha":1389,"x_min":-119,"x_max":1390,"o":"m 1271 533 l 1174 171 l 574 171 l 550 83 l 1156 85 l 1058 -278 l 10 -281 l 129 171 l -119 171 l -22 533 l 226 533 l 246 610 l 0 610 l 97 972 l 1390 972 l 1293 610 l 690 610 l 671 533 l 1271 533 z "},"ヤ":{"ha":1389,"x_min":-43,"x_max":1347,"o":"m 621 446 l 428 -281 l -17 -281 l 176 446 l -43 446 l 54 808 l 272 808 l 315 969 l 760 969 l 717 808 l 1347 808 l 1157 107 l 713 107 l 804 446 l 621 446 z "},"ャ":{"ha":1111,"x_min":92,"x_max":1178,"o":"m 611 290 l 460 -278 l 113 -278 l 264 290 l 92 290 l 168 574 l 339 574 l 372 699 l 719 699 l 686 574 l 1178 574 l 1029 25 l 682 25 l 754 290 l 611 290 z "},"ユ":{"ha":1389,"x_min":-236,"x_max":1193,"o":"m -236 -278 l -139 85 l 513 85 l 653 610 l 0 610 l 97 972 l 1193 972 l 957 85 l 1154 85 l 1057 -278 l -236 -278 z "},"ュ":{"ha":1111,"x_min":3,"x_max":1110,"o":"m 3 -278 l 78 3 l 583 3 l 692 408 l 186 408 l 261 690 l 1110 690 l 928 3 l 1079 3 l 1004 -278 l 3 -278 z "},"ヨ":{"ha":1389,"x_min":-232,"x_max":1390,"o":"m -135 79 l 714 79 l 736 165 l -115 165 l -18 528 l 833 528 l 854 610 l 0 610 l 97 972 l 1390 972 l 1389 969 l 1063 -281 l 1061 -283 l -232 -283 l -135 79 z "},"ョ":{"ha":1111,"x_min":1,"x_max":1264,"o":"m 78 -1 l 738 -1 l 756 65 l 92 65 l 168 347 l 831 347 l 847 411 l 182 411 l 258 693 l 1264 693 l 1263 692 l 1008 -282 l 1007 -283 l 1 -283 l 78 -1 z "},"ラ":{"ha":1389,"x_min":-122,"x_max":1390,"o":"m 0 610 l 97 972 l 1390 972 l 1293 610 l 0 610 m 613 -281 l 726 149 l -122 149 l -25 511 l 1268 511 l 1057 -281 l 613 -281 z "},"リ":{"ha":1389,"x_min":-122,"x_max":1390,"o":"m -122 149 l 100 972 l 544 972 l 322 149 l -122 149 m 614 -278 l 946 972 l 1390 972 l 1058 -278 l 614 -278 z "},"ル":{"ha":1389,"x_min":-236,"x_max":1169,"o":"m -236 -281 l 96 969 l 540 969 l 208 -281 l -236 -281 m 1058 -281 l 393 -281 l 725 969 l 1169 969 l 933 82 l 1156 82 l 1058 -281 z "},"レ":{"ha":1389,"x_min":-237,"x_max":1228,"o":"m 94 969 l 539 969 l 328 178 l 1228 363 l 1131 0 l -237 -281 l 94 969 z "},"ロ":{"ha":1389,"x_min":-237,"x_max":1390,"o":"m 1390 972 l 1058 -275 l -237 -281 l 97 972 l 1390 972 m 710 88 l 849 610 l 443 610 l 304 88 l 710 88 z "},"ワ":{"ha":1389,"x_min":-39,"x_max":1393,"o":"m 713 82 l 853 610 l 446 610 l 406 460 l -39 460 l 97 972 l 1390 972 l 1389 969 l 1393 969 l 1061 -281 l 6 -281 l 103 82 l 713 82 z "},"ヮ":{"ha":1111,"x_min":-85,"x_max":1035,"o":"m 503 1 l 613 414 l 293 414 l 263 297 l -85 297 l 21 697 l 1032 697 l 1032 696 l 1035 696 l 775 -282 l -50 -282 l 26 1 l 503 1 z "},"ヲ":{"ha":1389,"x_min":-122,"x_max":1390,"o":"m -122 149 l -25 511 l 824 511 l 850 610 l 0 610 l 97 972 l 1390 972 l 1058 -281 l 614 -281 l 728 149 l -122 149 z "},"ン":{"ha":1389,"x_min":-232,"x_max":1363,"o":"m 8 610 l 106 972 l 853 972 l 756 610 l 8 610 m -135 85 l 711 86 l 918 833 l 1363 833 l 1057 -275 l 1056 -278 l -232 -278 l -135 85 z "},"ヴ":{"ha":1389,"x_min":-61,"x_max":1425,"o":"m 650 -278 l 849 481 l 438 481 l 383 289 l -61 289 l 93 843 l 518 843 l 553 974 l 997 974 l 963 843 l 1117 843 l 1151 972 l 1275 972 l 1240 843 l 1267 843 l 1301 972 l 1425 972 l 1094 -278 l 650 -278 z "},"!":{"ha":556,"x_min":-221,"x_max":556,"o":"m -104 163 l 111 972 l 556 972 l 340 164 l -104 163 m 318 79 l 224 -278 l -221 -278 l -126 79 l 318 79 z "},"?":{"ha":1389,"x_min":14,"x_max":1396,"o":"m 1183 163 l 314 163 l 411 525 l 833 525 l 857 610 l 14 610 l 111 972 l 1396 972 l 1183 163 m 285 79 l 729 79 l 635 -278 l 190 -278 l 285 79 z "},"¢":{"ha":1389,"x_min":-236,"x_max":1390,"o":"m 446 610 l 306 79 l 1154 79 l 1057 -283 l 631 -283 l 608 -369 l 164 -369 l 186 -283 l -236 -283 l -169 -37 l 1 610 l 0 610 l 97 972 l 532 972 l 554 1058 l 999 1058 l 976 972 l 1390 972 l 1293 610 l 446 610 z "},"$":{"ha":1389,"x_min":-236,"x_max":1390,"o":"m 446 610 l 424 525 l 1274 525 l 1257 461 l 1260 461 l 1064 -281 l 1058 -281 l 1057 -283 l 631 -283 l 608 -369 l 164 -369 l 186 -283 l -236 -283 l -139 79 l 714 79 l 736 163 l -118 163 l 1 610 l 0 610 l 97 972 l 532 972 l 554 1058 l 999 1058 l 976 972 l 1390 972 l 1293 610 l 446 610 z "},"€":{"ha":1389,"x_min":-342,"x_max":1390,"o":"m 446 610 l 306 79 l 1154 79 l 1057 -283 l -236 -283 l -169 -37 l -160 0 l -342 0 l -274 256 l -92 256 l -46 429 l -228 429 l -160 685 l 19 685 l 97 972 l 1390 972 l 1293 610 l 446 610 z "},"£":{"ha":1389,"x_min":-236,"x_max":1154,"o":"m 1154 79 l 1057 -283 l -236 -283 l -139 79 l -15 79 l 7 163 l -158 163 l -61 525 l 103 525 l 125 610 l 124 610 l 221 972 l 969 972 l 872 610 l 569 610 l 547 525 l 1081 525 l 983 163 l 451 163 l 429 79 l 1154 79 z "},"¥":{"ha":1389,"x_min":-231,"x_max":1385,"o":"m 1069 518 l 1217 518 l 1149 263 l 892 263 l 849 200 l 1131 200 l 1063 -56 l 642 -56 l 582 -281 l 138 -281 l 197 -56 l -231 -56 l -162 200 l 131 200 l 121 263 l -144 263 l -76 518 l 83 518 l 17 969 l 461 969 l 528 518 l 625 518 l 940 969 l 1385 969 l 1069 518 z "},"ー":{"ha":1389,"x_min":-122,"x_max":1268,"o":"m -122 149 l -25 511 l 1268 511 l 1171 149 l -122 149 z "}}}
